<?xml version="1.0" encoding="utf-8"?>
<svg width="512" height="512" viewBox="0 0 512 512" fill="none" xmlns="http://www.w3.org/2000/svg">
  <defs>
    <linearGradient id="gradient_1" gradientUnits="userSpaceOnUse" x1="0" y1="0" x2="440" y2="440">
      <stop offset="0" stop-color="#00C2FF" />
      <stop offset="1" stop-color="#7B61FF" />
    </linearGradient>
  </defs>
  <g>
    <path d="M0 220C0 98.4973 98.4973 0 220 0C341.503 0 440 98.4973 440 220C440 341.503 341.503 440 220 440C98.4973 440 0 341.503 0 220Z" fill="url(#gradient_1)" fill-rule="evenodd" transform="translate(36 36)" />
    <g transform="translate(146 147)">
      <path d="M0 20.5312L0 10.2656C0 7.43085 1.00338 5.01122 3.01015 3.00673C5.01692 1.00224 7.4393 0 10.2773 0L44.535 0C47.373 0 49.7954 1.00224 51.8021 3.00673C53.8089 5.01122 54.8123 7.43085 54.8123 10.2656L54.8123 208.734C54.8123 211.569 53.8089 213.989 51.8021 215.993C49.7954 217.998 47.373 219 44.535 219L10.2773 219C7.4393 219 5.01692 217.998 3.01015 215.993C1.00338 213.989 0 211.569 0 208.734L0 20.5312Z" fill="#FFFFFF" fill-rule="evenodd" />
      <path d="M0 27.375C0 12.2562 12.2701 0 27.4061 0C42.5421 0 54.8123 12.2562 54.8123 27.375C54.8123 42.4938 42.5421 54.75 27.4061 54.75C12.2701 54.75 0 42.4938 0 27.375Z" fill="#FFFFFF" fill-rule="evenodd" fill-opacity="0.5" transform="translate(165.188 0)" />
      <path d="M0 20.5312L0 10.2656C0 7.43085 1.00339 5.01122 3.01015 3.00673C5.01692 1.00224 7.4393 0 10.2773 0L44.535 0C47.373 0 49.7953 1.00224 51.8021 3.00673C53.8089 5.01122 54.8123 7.43085 54.8123 10.2656L54.8123 208.734C54.8123 211.569 53.8089 213.989 51.8021 215.993C49.7953 217.998 47.373 219 44.535 219L10.2773 219C7.4393 219 5.01692 217.998 3.01015 215.993C1.00339 213.989 0 211.569 0 208.734L0 20.5312Z" fill="#FFFFFF" fill-rule="evenodd" fill-opacity="0.7" transform="translate(82.218 0)" />
      <path d="M0 14.25L0 7.125C0 5.15749 1.00339 3.4781 3.01015 2.08686C5.01692 0.695618 7.4393 0 10.2773 0L44.535 0C47.373 0 49.7954 0.695618 51.8021 2.08686C53.8089 3.4781 54.8123 5.15749 54.8123 7.125L54.8123 144.875C54.8123 146.843 53.8089 148.522 51.8021 149.913C49.7954 151.304 47.373 152 44.535 152L10.2773 152C7.4393 152 5.01692 151.304 3.01015 149.913C1.00339 148.522 0 146.843 0 144.875L0 14.25Z" fill="#FFFFFF" fill-rule="evenodd" fill-opacity="0.4" transform="translate(165.188 67)" />
    </g>
  </g>
</svg>